:SAMPLES-PER-SECOND 30
:FRAME-RANGE 1-663
:FULLY-SPECIFIED
:DEGREES
83
root  -38.152 36.588 117.546 26.5632 79.3642 22.403
RightUpLeg  -28.8316 -2.13402 -6.3466
RightLeg  6.45005 -0.557172 -0.81104
RightFoot  2.16873 -1.14092 9.73578
RightToes  -3.4386e-010 1.2921e-014 -6.02303e-014
Spine  -2.54272 -3.31733 -2.86297
Spine1  9.5882 -2.20964 -3.56095
HEad  29.3572 11.6142 1.03181
LeftShoulder1  2.36792 -5.37455 -21.1582
LeftArm  -7.12418 -9.80693 -47.4037
LeftForeArm  28.4111 6.67822 -10.7883
LeftHand  -0.0373207 4.69486 2.34083
RightShoulder  1.78687 2.16671 26.6508
RightArm  -26.0225 10.7971 50.6734
RightForeArm  72.4287 -5.002 2.27684
RightHand  0.469557 -8.72904 -16.9597
LeftUpLeg  -1.46557 -3.67948 -7.65888
LeftLeg  24.3627 6.90587 3.75869
LeftFoot  -22.977 0.229623 0.899289
LeftToes  -7.12384e-010 -7.51861e-011 -8.34901e-011
84
root  -37.3235 36.5254 117.971 28.0914 80.7782 23.1397
RightUpLeg  -30.5284 -0.272679 -6.63665
RightLeg  10.21 -2.67124 -1.56071
RightFoot  6.43507 -1.72365 11.2724
RightToes  -3.4386e-010 1.2921e-014 -6.02303e-014
Spine  -0.240864 -3.5676 -1.79177
Spine1  9.36552 -2.72854 -3.06276
HEad  28.5946 11.0855 0.340528
LeftShoulder1  2.5817 -6.06769 -21.4404
LeftArm  -7.68869 -12.1289 -46.3248
LeftForeArm  26.5483 7.58128 -10.6008
LeftHand  -0.0368937 4.77223 2.51031
RightShoulder  1.95395 2.75981 26.2113
RightArm  -25.2753 13.2221 50.7707
RightForeArm  70.8847 -5.11328 2.5747
RightHand  0.475613 -8.67365 -17.4225
LeftUpLeg  -2.64897 -4.29678 -6.43716
LeftLeg  27.913 5.53581 3.52835
LeftFoot  -22.683 -0.0176831 -1.54901
LeftToes  -7.12384e-010 -7.51861e-011 -8.34901e-011
85
root  -36.5615 36.3585 118.427 28.4644 81.9084 22.2077
RightUpLeg  -33.352 -1.17654 -5.86938
RightLeg  15.2077 -2.61003 -1.0772
RightFoot  7.14812 -1.76624 11.1226
RightToes  -3.4386e-010 1.2921e-014 -6.02303e-014
Spine  2.01081 -3.53625 -0.476629
Spine1  9.0217 -2.7653 -2.86631
HEad  27.6185 10.0249 -0.163309
LeftShoulder1  2.80687 -6.98572 -21.154
LeftArm  -8.86273 -14.753 -46.255
LeftForeArm  25.6927 7.53922 -10.281
LeftHand  -0.0337222 4.86428 2.84702
RightShoulder  2.14027 3.43998 25.7201
RightArm  -24.8743 15.9227 50.951
RightForeArm  69.2339 -5.18631 2.62683
RightHand  0.455284 -8.44246 -17.921
LeftUpLeg  -6.41597 -3.29921 -4.44899
LeftLeg  34.9232 2.61411 2.33436
LeftFoot  -21.3886 -0.282115 -4.66643
LeftToes  -7.12384e-010 -7.51861e-011 -8.34901e-011
86
root  -35.8938 36.2074 118.892 21.8883 83.1189 14.2694
RightUpLeg  -35.7411 -3.11352 -3.01685
RightLeg  19.1578 -1.08418 -0.629086
RightFoot  6.95496 -1.2006 7.74153
RightToes  -3.4386e-010 1.2921e-014 -6.02303e-014
Spine  4.68476 -3.38256 1.36106
Spine1  8.58409 -2.70513 -2.35638
HEad  26.073 9.07885 -0.784383
LeftShoulder1  2.89971 -7.7513 -20.0304
LeftArm  -10.0834 -17.1848 -47.1027
LeftForeArm  24.0046 7.47461 -9.77986
LeftHand  -0.0324359 4.92565 2.91103
RightShoulder  2.35833 4.39873 24.5653
RightArm  -25.184 18.8047 51.7063
RightForeArm  67.6893 -5.16263 2.13509
RightHand  0.350323 -7.84531 -17.3442
LeftUpLeg  -11.88 -1.63408 -1.27802
LeftLeg  44.1345 -0.279221 0.124446
LeftFoot  -17.4593 -0.333244 -8.18035
LeftToes  -7.12384e-010 -7.51861e-011 -8.34901e-011
87
root  -35.3617 36.1204 119.312 10.8359 84.4828 2.26494
RightUpLeg  -37.2262 -2.68307 -0.883054
RightLeg  21.9032 -2.44298 -1.29862
RightFoot  7.26643 -0.400045 2.74558
RightToes  -3.4386e-010 1.2921e-014 -6.02303e-014
Spine  7.72624 -3.19664 3.16341
Spine1  8.57436 -2.78522 -1.12889
HEad  24.4816 8.29338 -1.09638
LeftShoulder1  2.97488 -8.6815 -18.5119
LeftArm  -10.7745 -19.7341 -48.1319
LeftForeArm  22.3575 7.43286 -9.44078
LeftHand  -0.031263 4.8404 2.8211
RightShoulder  2.48981 5.11502 23.4756
RightArm  -24.6745 22.3701 52.403
RightForeArm  67.3632 -5.15703 2.02885
RightHand  0.351022 -7.90523 -16.9965
LeftUpLeg  -17.8028 -0.672216 1.58468
LeftLeg  52.8452 -0.701787 -0.513786
LeftFoot  -13.7067 -0.0765959 -7.67419
LeftToes  -7.12384e-010 -7.51861e-011 -8.34901e-011
88
root  -34.8246 36.0975 119.759 11.6543 85.4475 2.5752
RightUpLeg  -38.0776 -3.6156 0.054987
RightLeg  24.4557 -2.48514 -1.45845
RightFoot  5.68002 -0.191631 1.54032
RightToes  -3.4386e-010 1.2921e-014 -6.02303e-014
Spine  10.9963 -3.01177 2.71277
Spine1  8.01145 -2.85005 -0.157847
HEad  23.4503 7.71768 -1.12032
LeftShoulder1  3.10398 -9.52294 -17.8369
LeftArm  -10.9133 -22.7373 -48.0944
LeftForeArm  21.9924 7.42551 -9.37959
LeftHand  -0.0353971 4.84742 2.44132
RightShoulder  2.62125 5.67752 23.072
RightArm  -23.6573 26.6191 52.5694
RightForeArm  67.7903 -5.16993 2.20118
RightHand  0.46728 -8.60065 -17.5083
LeftUpLeg  -22.6714 -0.140919 2.37711
LeftLeg  58.5261 0.801406 1.97367
LeftFoot  -13.7477 -0.0578991 -6.66946
LeftToes  -7.12384e-010 -7.51861e-011 -8.34901e-011
89
root  -34.2553 36.1301 120.143 12.4068 86.2213 2.53673
RightUpLeg  -38.8096 -4.43846 0.878988
RightLeg  26.2814 -2.38811 -1.51091
RightFoot  4.18548 -0.0417291 0.515998
RightToes  -3.4386e-010 1.2921e-014 -6.02303e-014
Spine  13.283 -2.88373 2.92057
Spine1  8.01676 -2.69365 -0.123861
HEad  22.5048 7.79132 -1.41462
LeftShoulder1  3.27513 -10.2792 -17.7397
LeftArm  -10.8154 -26.0845 -47.5588
LeftForeArm  21.7608 7.439 -9.45452
LeftHand  -0.036062 4.85531 2.66012
RightShoulder  2.76011 6.25053 22.7641
RightArm  -22.6788 30.8163 52.6673
RightForeArm  68.0139 -5.18678 2.3517
RightHand  0.224681 -7.0083 -17.2374
LeftUpLeg  -27.0841 0.322528 2.99999
LeftLeg  60.7066 1.1865 2.89172
LeftFoot  -14.8813 -0.0816237 -5.52225
LeftToes  -7.12384e-010 -7.51861e-011 -8.34901e-011
90
root  -33.726 36.1788 120.494 23.3604 87.5238 12.1996
RightUpLeg  -39.9252 -5.21152 1.09826
RightLeg  27.7531 -2.81924 -1.84078
RightFoot  2.76782 0.0791161 -0.486273
RightToes  -3.4386e-010 1.2921e-014 -6.02303e-014
Spine  14.8662 -2.80943 2.80456
Spine1  7.94384 -2.73374 0.152395
HEad  21.2773 6.20705 -0.748286
LeftShoulder1  3.31614 -11.0074 -16.7149
LeftArm  -10.5872 -29.1278 -48.2415
LeftForeArm  21.1139 7.44535 -9.46954
LeftHand  -0.0397528 4.72625 2.95298
RightShoulder  2.80349 6.72781 21.7656
RightArm  -22.3279 34.0552 53.129
RightForeArm  67.0184 -5.18567 2.12199
RightHand  0.242973 -7.1221 -17.3315
LeftUpLeg  -31.4738 0.476654 3.02353
LeftLeg  60.009 0.907407 2.28827
LeftFoot  -16.2524 -0.146096 -5.6732
LeftToes  -7.12384e-010 -7.51861e-011 -8.34901e-011
91
root  -33.2616 36.27 120.816 43.7165 88.6353 31.3891
RightUpLeg  -40.4053 -5.73463 1.44135
RightLeg  28.1046 -3.50111 -2.25832
RightFoot  1.70998 0.104727 -0.813093
RightToes  -3.4386e-010 1.2921e-014 -6.02303e-014
Spine  16.6924 -2.6232 2.85918
Spine1  7.44055 -2.63556 0.523862
HEad  20.6197 5.20968 -0.660428
LeftShoulder1  3.33416 -11.5734 -15.8827
LeftArm  -11.2068 -31.8051 -49.2824
LeftForeArm  20.7536 7.3682 -8.97592
LeftHand  -0.0420929 4.55919 2.78103
RightShoulder  2.78788 7.08796 20.5707
RightArm  -22.2479 36.6534 53.5696
RightForeArm  65.4857 -5.18403 1.77551
RightHand  0.229157 -7.06716 -16.9761
LeftUpLeg  -35.1163 0.45393 2.90623
LeftLeg  57.0281 1.32678 2.74205
LeftFoot  -17.1457 -0.185732 -5.68592
LeftToes  -7.12384e-010 -7.51861e-011 -8.34901e-011
92
root  -32.8426 36.4133 121.082 93.1958 88.9965 79.5217
RightUpLeg  -40.8639 -6.38773 1.73953
RightLeg  27.7728 -3.80277 -2.4015
RightFoot  1.12749 0.119074 -1.01905
RightToes  -3.4386e-010 1.2921e-014 -6.02303e-014
Spine  18.4365 -2.89189 3.4364
Spine1  6.82705 -2.51099 -0.603389
HEad  19.3415 4.51696 0.0312402
LeftShoulder1  3.26343 -11.7579 -15.0679
LeftArm  -11.1731 -34.3032 -49.7148
LeftForeArm  19.4654 7.3475 -8.80744
LeftHand  -0.0462465 4.4963 2.58713
RightShoulder  2.91065 7.61932 20.381
RightArm  -21.9854 39.3879 53.7236
RightForeArm  63.6021 -5.22176 1.59567
RightHand  0.181454 -6.75875 -16.7431
LeftUpLeg  -38.2043 0.808617 2.33502
LeftLeg  52.3678 2.01163 3.27854
LeftFoot  -16.9999 -0.180612 -5.71136
LeftToes  -7.12384e-010 -7.51861e-011 -8.34901e-011
